<svg xmlns="http://www.w3.org/2000/svg" width="1280" height="360" viewBox="0 0 1280 360" role="img" aria-labelledby="title desc">
  <title id="title">Askaide GitHub organization banner</title>
  <desc id="desc">Askaide, Belgian-first local services marketplace.</desc>
  <rect width="1280" height="360" fill="#ffffff"/>
  <circle cx="1080" cy="90" r="130" fill="#eaf3ff"/>
  <circle cx="1170" cy="255" r="180" fill="#fff3e3"/>
  <circle cx="90" cy="300" r="150" fill="#edf7f2"/>
  <g transform="translate(80 86)">
    <text x="0" y="58" font-family="Arial, Helvetica, sans-serif" font-size="56" font-weight="700" fill="#12407a">Askaide</text>
    <text x="0" y="108" font-family="Arial, Helvetica, sans-serif" font-size="26" font-weight="500" fill="#2f3f55">Belgian-first local services marketplace</text>
    <text x="0" y="154" font-family="Arial, Helvetica, sans-serif" font-size="20" fill="#526174">Home services, local providers and everyday help across selected countries.</text>
    <g transform="translate(0 198)">
      <rect width="152" height="42" rx="21" fill="#e8f1ff"/>
      <text x="24" y="28" font-family="Arial, Helvetica, sans-serif" font-size="16" font-weight="700" fill="#1e5db8">Belgium</text>
      <rect x="168" width="150" height="42" rx="21" fill="#eaf8f0"/>
      <text x="192" y="28" font-family="Arial, Helvetica, sans-serif" font-size="16" font-weight="700" fill="#167047">Brussels</text>
      <rect x="334" width="118" height="42" rx="21" fill="#fff4e6"/>
      <text x="358" y="28" font-family="Arial, Helvetica, sans-serif" font-size="16" font-weight="700" fill="#9b5a00">Liege</text>
      <rect x="468" width="128" height="42" rx="21" fill="#f0efff"/>
      <text x="492" y="28" font-family="Arial, Helvetica, sans-serif" font-size="16" font-weight="700" fill="#4b49a8">Namur</text>
    </g>
  </g>
  <g transform="translate(1010 92)">
    <rect x="0" y="0" width="168" height="168" rx="42" fill="#ffffff" stroke="#d8e4f2" stroke-width="2"/>
    <circle cx="84" cy="48" r="20" fill="#ff9f1c"/>
    <path d="M42 72c22 14 62 14 84 0" fill="none" stroke="#ff9f1c" stroke-width="14" stroke-linecap="round"/>
    <path d="M84 76v54" stroke="#1e5db8" stroke-width="14" stroke-linecap="round"/>
    <path d="M56 108c20-15 36-15 56 0" fill="none" stroke="#1e5db8" stroke-width="12" stroke-linecap="round"/>
  </g>
</svg>
